<svg width="26" height="27" viewBox="0 0 26 27" fill="none" xmlns="http://www.w3.org/2000/svg">
<path d="M10.1542 19.5C9.77215 19.5 9.44732 19.3662 9.17969 19.0986C8.91207 18.8309 8.77826 18.5061 8.77826 18.1241V8.87593C8.77826 8.49389 8.91207 8.16906 9.17969 7.90143C9.44732 7.63381 9.77215 7.5 10.1542 7.5H13.1811C14.1041 7.5 14.9387 7.7874 15.6848 8.36219C16.4308 8.93683 16.8038 9.71072 16.8038 10.6838C16.8038 11.3607 16.6403 11.9125 16.3134 12.3392C15.9866 12.7659 15.6345 13.0756 15.2571 13.2684C15.7216 13.4285 16.1651 13.7452 16.5878 14.2184C17.0104 14.6916 17.2217 15.3288 17.2217 16.1298C17.2217 17.2874 16.795 18.1385 15.9416 18.6831C15.0881 19.2277 14.2284 19.5 13.3623 19.5H10.1542ZM10.7254 17.6957H13.2891C14.002 17.6957 14.506 17.4977 14.8009 17.1018C15.0958 16.7059 15.2433 16.3262 15.2433 15.9627C15.2433 15.5992 15.0958 15.2195 14.8009 14.8236C14.506 14.4277 13.9881 14.2297 13.2472 14.2297H10.7254V17.6957ZM10.7254 12.4811H13.0749C13.6253 12.4811 14.0616 12.3238 14.3838 12.0091C14.706 11.6945 14.867 11.3177 14.867 10.8788C14.867 10.4121 14.6967 10.0306 14.356 9.73449C14.0152 9.43849 13.5974 9.29049 13.1028 9.29049H10.7254V12.4811Z" fill="#808080"/>
</svg>
