<svg width="34" height="27" viewBox="0 0 34 27" fill="none" xmlns="http://www.w3.org/2000/svg">
<path d="M22.0224 16.548H19.793C19.5872 16.548 19.4153 16.4763 19.2772 16.3329C19.1393 16.1897 19.0704 16.0122 19.0704 15.8004C19.0704 15.5945 19.142 15.4185 19.2852 15.2723C19.4285 15.1259 19.6061 15.0528 19.818 15.0528H22.0224V12.8483C22.0224 12.6365 22.0941 12.4589 22.2374 12.3155C22.3808 12.1723 22.5584 12.1007 22.7702 12.1007C22.9822 12.1007 23.1597 12.1723 23.3028 12.3155C23.446 12.4589 23.5176 12.6365 23.5176 12.8483V15.0528H25.722C25.9338 15.0528 26.1114 15.1245 26.2546 15.2678C26.3979 15.4112 26.4696 15.5888 26.4696 15.8006C26.4696 16.0126 26.3979 16.1901 26.2546 16.3332C26.1114 16.4764 25.9338 16.548 25.722 16.548H23.5176V18.7524C23.5176 18.9642 23.4459 19.1417 23.3025 19.2849C23.1592 19.4283 22.9815 19.5 22.7695 19.5C22.5577 19.5 22.3802 19.4283 22.2369 19.2849C22.0939 19.1417 22.0224 18.9642 22.0224 18.7524V16.548ZM15.064 16.548H12.0544C10.8027 16.548 9.73581 16.1069 8.85364 15.2247C7.97147 14.3427 7.53038 13.276 7.53038 12.0245C7.53038 10.773 7.97147 9.70609 8.85364 8.82375C9.73581 7.94125 10.8027 7.5 12.0544 7.5H15.064C15.2696 7.5 15.4457 7.57318 15.592 7.71955C15.7384 7.86591 15.8116 8.04351 15.8116 8.25234C15.8116 8.46133 15.7384 8.63743 15.592 8.78064C15.4457 8.92368 15.2696 8.9952 15.064 8.9952H12.0531C11.2168 8.9952 10.5032 9.29075 9.91224 9.88186C9.32114 10.473 9.02558 11.187 9.02558 12.024C9.02558 12.861 9.32114 13.575 9.91224 14.1661C10.5032 14.7572 11.2168 15.0528 12.0531 15.0528H15.064C15.2696 15.0528 15.4457 15.1259 15.592 15.2723C15.7384 15.4185 15.8116 15.5961 15.8116 15.8051C15.8116 16.0141 15.7384 16.1901 15.592 16.3332C15.4457 16.4764 15.2696 16.548 15.064 16.548ZM14.0096 12.7716C13.7978 12.7716 13.6203 12.6999 13.4771 12.5565C13.3337 12.4132 13.262 12.2356 13.262 12.0237C13.262 11.8117 13.3337 11.6342 13.4771 11.4912C13.6203 11.348 13.7978 11.2764 14.0096 11.2764H19.9904C20.2022 11.2764 20.3797 11.3481 20.5229 11.4914C20.6663 11.6348 20.738 11.8124 20.738 12.0242C20.738 12.2362 20.6663 12.4137 20.5229 12.5568C20.3797 12.7 20.2022 12.7716 19.9904 12.7716H14.0096ZM26.4696 12.024H24.9744C24.9744 11.187 24.6789 10.473 24.0878 9.88186C23.4968 9.29075 22.7832 8.9952 21.9469 8.9952H18.9111C18.7054 8.9952 18.5336 8.9236 18.3955 8.78039C18.2575 8.63702 18.1884 8.45942 18.1884 8.2476C18.1884 8.04193 18.2601 7.86591 18.4035 7.71955C18.5467 7.57318 18.7242 7.5 18.936 7.5H21.9456C23.1973 7.5 24.2642 7.94108 25.1464 8.82325C26.0285 9.70542 26.4696 10.7723 26.4696 12.024Z" fill="#808080"/>
</svg>
