<svg width="16" height="16" viewBox="0 0 16 16" fill="none" xmlns="http://www.w3.org/2000/svg">
<path d="M6.125 13C5.78125 13 5.48698 12.8776 5.24219 12.6328C4.9974 12.388 4.875 12.0938 4.875 11.75C4.875 11.4062 4.9974 11.112 5.24219 10.8672C5.48698 10.6224 5.78125 10.5 6.125 10.5C6.46875 10.5 6.76302 10.6224 7.00781 10.8672C7.2526 11.112 7.375 11.4062 7.375 11.75C7.375 12.0938 7.2526 12.388 7.00781 12.6328C6.76302 12.8776 6.46875 13 6.125 13ZM9.875 13C9.53125 13 9.23698 12.8776 8.99219 12.6328C8.7474 12.388 8.625 12.0938 8.625 11.75C8.625 11.4062 8.7474 11.112 8.99219 10.8672C9.23698 10.6224 9.53125 10.5 9.875 10.5C10.2188 10.5 10.513 10.6224 10.7578 10.8672C11.0026 11.112 11.125 11.4062 11.125 11.75C11.125 12.0938 11.0026 12.388 10.7578 12.6328C10.513 12.8776 10.2188 13 9.875 13ZM6.125 9.25C5.78125 9.25 5.48698 9.1276 5.24219 8.88281C4.9974 8.63802 4.875 8.34375 4.875 8C4.875 7.65625 4.9974 7.36198 5.24219 7.11719C5.48698 6.8724 5.78125 6.75 6.125 6.75C6.46875 6.75 6.76302 6.8724 7.00781 7.11719C7.2526 7.36198 7.375 7.65625 7.375 8C7.375 8.34375 7.2526 8.63802 7.00781 8.88281C6.76302 9.1276 6.46875 9.25 6.125 9.25ZM9.875 9.25C9.53125 9.25 9.23698 9.1276 8.99219 8.88281C8.7474 8.63802 8.625 8.34375 8.625 8C8.625 7.65625 8.7474 7.36198 8.99219 7.11719C9.23698 6.8724 9.53125 6.75 9.875 6.75C10.2188 6.75 10.513 6.8724 10.7578 7.11719C11.0026 7.36198 11.125 7.65625 11.125 8C11.125 8.34375 11.0026 8.63802 10.7578 8.88281C10.513 9.1276 10.2188 9.25 9.875 9.25ZM6.125 5.5C5.78125 5.5 5.48698 5.3776 5.24219 5.13281C4.9974 4.88802 4.875 4.59375 4.875 4.25C4.875 3.90625 4.9974 3.61198 5.24219 3.36719C5.48698 3.1224 5.78125 3 6.125 3C6.46875 3 6.76302 3.1224 7.00781 3.36719C7.2526 3.61198 7.375 3.90625 7.375 4.25C7.375 4.59375 7.2526 4.88802 7.00781 5.13281C6.76302 5.3776 6.46875 5.5 6.125 5.5ZM9.875 5.5C9.53125 5.5 9.23698 5.3776 8.99219 5.13281C8.7474 4.88802 8.625 4.59375 8.625 4.25C8.625 3.90625 8.7474 3.61198 8.99219 3.36719C9.23698 3.1224 9.53125 3 9.875 3C10.2188 3 10.513 3.1224 10.7578 3.36719C11.0026 3.61198 11.125 3.90625 11.125 4.25C11.125 4.59375 11.0026 4.88802 10.7578 5.13281C10.513 5.3776 10.2188 5.5 9.875 5.5Z" fill="#373737"/>
</svg>
