<svg width="36" height="36" viewBox="0 0 36 36" fill="none" xmlns="http://www.w3.org/2000/svg">
<path d="M13.1577 22C12.9786 22 12.8286 21.9394 12.7078 21.8183C12.5868 21.6973 12.5263 21.5474 12.5263 21.3684V14.6316C12.5263 14.4526 12.5869 14.3027 12.708 14.1817C12.8291 14.0606 12.9792 14 13.1581 14C13.3372 14 13.4872 14.0606 13.608 14.1817C13.729 14.3027 13.7895 14.4526 13.7895 14.6316V17.3684H17.5789V14.6316C17.5789 14.4526 17.6395 14.3027 17.7606 14.1817C17.8818 14.0606 18.0318 14 18.2107 14C18.3898 14 18.5398 14.0606 18.6606 14.1817C18.7816 14.3027 18.8421 14.4526 18.8421 14.6316V21.3684C18.8421 21.5474 18.7815 21.6973 18.6604 21.8183C18.5393 21.9394 18.3893 22 18.2103 22C18.0312 22 17.8813 21.9394 17.7604 21.8183C17.6394 21.6973 17.5789 21.5474 17.5789 21.3684V18.6316H13.7895V21.3684C13.7895 21.5474 13.7289 21.6973 13.6078 21.8183C13.4867 21.9394 13.3366 22 13.1577 22ZM22.8419 22C22.6628 22 22.5128 21.9394 22.392 21.8183C22.271 21.6973 22.2105 21.5474 22.2105 21.3684V15.2632H21.1579C20.9789 15.2632 20.8289 15.2026 20.7078 15.0815C20.5868 14.9604 20.5263 14.8103 20.5263 14.6314C20.5263 14.4523 20.5868 14.3023 20.7078 14.1815C20.8289 14.0605 20.9789 14 21.1579 14H22.7084C22.9282 14 23.1107 14.0729 23.2558 14.2187C23.4011 14.3647 23.4737 14.5455 23.4737 14.7611V21.3684C23.4737 21.5474 23.4131 21.6973 23.292 21.8183C23.1709 21.9394 23.0208 22 22.8419 22Z" fill="#808080"/>
</svg>
