<svg width="36" height="36" viewBox="0 0 36 36" fill="none" xmlns="http://www.w3.org/2000/svg">
<path d="M11.4735 22C11.2944 22 11.1444 21.9394 11.0236 21.8183C10.9026 21.6973 10.8421 21.5474 10.8421 21.3684V14.6316C10.8421 14.4526 10.9027 14.3027 11.0238 14.1817C11.1449 14.0606 11.2949 14 11.4739 14C11.653 14 11.8029 14.0606 11.9238 14.1817C12.0448 14.3027 12.1053 14.4526 12.1053 14.6316V17.3684H15.8947V14.6316C15.8947 14.4526 15.9553 14.3027 16.0764 14.1817C16.1975 14.0606 16.3476 14 16.5265 14C16.7056 14 16.8556 14.0606 16.9764 14.1817C17.0974 14.3027 17.1579 14.4526 17.1579 14.6316V21.3684C17.1579 21.5474 17.0973 21.6973 16.9762 21.8183C16.8551 21.9394 16.705 22 16.5261 22C16.347 22 16.197 21.9394 16.0762 21.8183C15.9552 21.6973 15.8947 21.5474 15.8947 21.3684V18.6316H12.1053V21.3684C12.1053 21.5474 12.0447 21.6973 11.9236 21.8183C11.8025 21.9394 11.6524 22 11.4735 22ZM19.6032 22C19.3876 22 19.2068 21.9271 19.0608 21.7813C18.915 21.6353 18.8421 21.4545 18.8421 21.2389V18.8907C18.8421 18.4721 18.9912 18.1137 19.2893 17.8156C19.5874 17.5175 19.9458 17.3684 20.3644 17.3684H23.6356C23.7112 17.3684 23.7733 17.3441 23.8219 17.2956C23.8705 17.247 23.8947 17.1849 23.8947 17.1093V15.5223C23.8947 15.4467 23.8705 15.3846 23.8219 15.336C23.7733 15.2874 23.7112 15.2632 23.6356 15.2632H19.4737C19.2947 15.2632 19.1447 15.2026 19.0236 15.0815C18.9026 14.9604 18.8421 14.8103 18.8421 14.6314C18.8421 14.4523 18.9026 14.3023 19.0236 14.1815C19.1447 14.0605 19.2947 14 19.4737 14H23.6356C24.0542 14 24.4126 14.1491 24.7107 14.4472C25.0088 14.7453 25.1579 15.1036 25.1579 15.5223V17.1093C25.1579 17.5279 25.0088 17.8863 24.7107 18.1844C24.4126 18.4825 24.0542 18.6316 23.6356 18.6316H20.3644C20.2888 18.6316 20.2267 18.6559 20.1781 18.7044C20.1295 18.753 20.1053 18.8151 20.1053 18.8907V20.7368H24.5263C24.7053 20.7368 24.8552 20.7974 24.9762 20.9185C25.0973 21.0396 25.1579 21.1897 25.1579 21.3686C25.1579 21.5477 25.0973 21.6977 24.9762 21.8185C24.8552 21.9395 24.7053 22 24.5263 22H19.6032Z" fill="#808080"/>
</svg>
