<svg width="26" height="27" viewBox="0 0 26 27" fill="none" xmlns="http://www.w3.org/2000/svg">
<path d="M8.206 19.5C7.97687 19.5 7.78313 19.4208 7.6248 19.2625C7.46661 19.104 7.38751 18.91 7.38751 18.6806C7.38751 18.4513 7.46661 18.2577 7.6248 18.0996C7.78313 17.9417 7.97687 17.8628 8.206 17.8628H10.8446L13.7794 9.13721H11.1408C10.9117 9.13721 10.7179 9.05796 10.5596 8.89947C10.4014 8.74113 10.3223 8.54725 10.3223 8.31781C10.3223 8.08838 10.4014 7.89472 10.5596 7.73683C10.7179 7.57894 10.9117 7.5 11.1408 7.5H17.794C18.0231 7.5 18.2168 7.57917 18.375 7.73751C18.5333 7.896 18.6125 8.08996 18.6125 8.3194C18.6125 8.54868 18.5333 8.74234 18.375 8.90038C18.2168 9.05826 18.0231 9.13721 17.794 9.13721H15.4339L12.4993 17.8628H14.8592C15.0883 17.8628 15.2821 17.942 15.4404 18.1005C15.5986 18.2589 15.6777 18.4528 15.6777 18.6822C15.6777 18.9116 15.5986 19.1053 15.4404 19.2632C15.2821 19.4211 15.0883 19.5 14.8592 19.5H8.206Z" fill="#808080"/>
</svg>
