<svg width="26" height="27" viewBox="0 0 26 27" fill="none" xmlns="http://www.w3.org/2000/svg">
<path d="M8.00816 19.5C7.89931 19.5 7.80937 19.4645 7.73831 19.3934C7.66716 19.3224 7.63158 19.2325 7.63158 19.1237C7.63158 19.0151 7.66716 18.9252 7.73831 18.8539C7.80937 18.7826 7.89931 18.747 8.00816 18.747H9.21052V18.0789H8.63973C8.53089 18.0789 8.44094 18.0434 8.36989 17.9724C8.29873 17.9013 8.26316 17.8114 8.26316 17.7027C8.26316 17.5941 8.29873 17.5041 8.36989 17.4328C8.44094 17.3616 8.53089 17.3259 8.63973 17.3259H9.21052V16.6579H8.00816C7.89931 16.6579 7.80937 16.6224 7.73831 16.5513C7.66716 16.4803 7.63158 16.3904 7.63158 16.2816C7.63158 16.173 7.66716 16.0831 7.73831 16.0118C7.80937 15.9405 7.89931 15.9049 8.00816 15.9049H9.42921C9.58058 15.9049 9.70747 15.9561 9.80989 16.0585C9.91231 16.1609 9.96352 16.2878 9.96352 16.4392V17.1924C9.96352 17.3437 9.91231 17.4706 9.80989 17.5731C9.70747 17.6755 9.58058 17.7267 9.42921 17.7267C9.58058 17.7267 9.70747 17.7779 9.80989 17.8803C9.91231 17.9827 9.96352 18.1097 9.96352 18.2612V18.9655C9.96352 19.117 9.91231 19.2439 9.80989 19.3464C9.70747 19.4488 9.58058 19.5 9.42921 19.5H8.00816ZM8.06279 15.2976C7.94216 15.2976 7.8401 15.2559 7.75663 15.1724C7.67326 15.0891 7.63158 14.9871 7.63158 14.8664V13.6579C7.63158 13.5065 7.68279 13.3796 7.78521 13.2771C7.88763 13.1746 8.01458 13.1234 8.16605 13.1234H9.21052V12.4555H8.00816C7.89931 12.4555 7.80937 12.4199 7.73831 12.3488C7.66716 12.2777 7.63158 12.1879 7.63158 12.0793C7.63158 11.9705 7.66716 11.8805 7.73831 11.8093C7.80937 11.738 7.89931 11.7024 8.00816 11.7024H9.42921C9.58058 11.7024 9.70747 11.7536 9.80989 11.856C9.91231 11.9585 9.96352 12.0855 9.96352 12.2368V13.3421C9.96352 13.4935 9.91231 13.6204 9.80989 13.7229C9.70747 13.8254 9.58058 13.8766 9.42921 13.8766H8.38458V14.5445H9.5871C9.69584 14.5445 9.78579 14.5801 9.85695 14.6512C9.928 14.7223 9.96352 14.8121 9.96352 14.9207C9.96352 15.0295 9.928 15.1195 9.85695 15.1907C9.78579 15.262 9.69584 15.2976 9.5871 15.2976H8.06279ZM8.95584 11.0951C8.8471 11.0951 8.7571 11.0596 8.68584 10.9885C8.61458 10.9174 8.57894 10.8274 8.57894 10.7187V8.253H8.00816C7.89931 8.253 7.80937 8.21747 7.73831 8.14642C7.66716 8.07537 7.63158 7.98553 7.63158 7.87689C7.63158 7.76816 7.66716 7.67816 7.73831 7.6069C7.80937 7.53563 7.89931 7.5 8.00816 7.5H8.90689C9.02752 7.5 9.12852 7.54068 9.20989 7.62205C9.29126 7.70342 9.33194 7.80442 9.33194 7.92505V10.7187C9.33194 10.8274 9.29642 10.9174 9.22537 10.9885C9.15431 11.0596 9.06447 11.0951 8.95584 11.0951ZM11.7733 17.7632C11.6391 17.7632 11.5266 17.7177 11.4357 17.6269C11.345 17.5361 11.2996 17.4235 11.2996 17.2893C11.2996 17.155 11.345 17.0425 11.4357 16.9519C11.5266 16.8612 11.6391 16.8158 11.7733 16.8158H17.8947C18.0289 16.8158 18.1414 16.8612 18.2322 16.9521C18.323 17.0429 18.3684 17.1554 18.3684 17.2896C18.3684 17.4239 18.323 17.5364 18.2322 17.6271C18.1414 17.7178 18.0289 17.7632 17.8947 17.7632H11.7733ZM11.7733 13.9737C11.6391 13.9737 11.5266 13.9283 11.4357 13.8374C11.345 13.7466 11.2996 13.6341 11.2996 13.4998C11.2996 13.3655 11.345 13.2531 11.4357 13.1624C11.5266 13.0717 11.6391 13.0263 11.7733 13.0263H17.8947C18.0289 13.0263 18.1414 13.0717 18.2322 13.1626C18.323 13.2534 18.3684 13.3659 18.3684 13.5002C18.3684 13.6345 18.323 13.7469 18.2322 13.8376C18.1414 13.9283 18.0289 13.9737 17.8947 13.9737H11.7733ZM11.7733 10.1842C11.6391 10.1842 11.5266 10.1388 11.4357 10.0479C11.345 9.9571 11.2996 9.84458 11.2996 9.71037C11.2996 9.57605 11.345 9.46358 11.4357 9.37295C11.5266 9.28221 11.6391 9.23684 11.7733 9.23684H17.8947C18.0289 9.23684 18.1414 9.28226 18.2322 9.37311C18.323 9.46395 18.3684 9.57647 18.3684 9.71068C18.3684 9.845 18.323 9.95747 18.2322 10.0481C18.1414 10.1388 18.0289 10.1842 17.8947 10.1842H11.7733Z" fill="#808080"/>
</svg>
