<svg width="26" height="27" viewBox="0 0 26 27" fill="none" xmlns="http://www.w3.org/2000/svg">
<path d="M13.1162 19.5C12.3428 19.5 11.6282 19.295 10.9724 18.8849C10.3167 18.4749 9.80117 17.9259 9.42598 17.238C9.34454 17.0861 9.3346 16.9269 9.39616 16.7606C9.45773 16.5943 9.5684 16.4705 9.72818 16.3891C9.89597 16.2998 10.0709 16.2859 10.253 16.3474C10.4353 16.409 10.5775 16.5237 10.6797 16.6915C10.9369 17.1382 11.2835 17.4926 11.7193 17.7547C12.1551 18.0168 12.6286 18.1479 13.14 18.1479C13.7823 18.1479 14.3455 17.9588 14.8295 17.5805C15.3135 17.2022 15.5555 16.7122 15.5555 16.1107C15.5555 16.0263 15.5481 15.9419 15.5332 15.8574C15.5183 15.773 15.4884 15.6936 15.4438 15.6191C15.4289 15.4355 15.4821 15.2756 15.6031 15.1396C15.7243 15.0035 15.8767 14.9281 16.0604 14.9133C16.2441 14.8983 16.4071 14.9514 16.5494 15.0726C16.6919 15.1937 16.7706 15.346 16.7856 15.5297C16.8402 15.638 16.8762 15.7549 16.8935 15.8805C16.9109 16.0061 16.9196 16.1304 16.9196 16.2535C16.9196 17.2086 16.5374 17.9885 15.7729 18.5932C15.0084 19.1977 14.1229 19.5 13.1162 19.5ZM6.03046 13.3496C5.86564 13.3496 5.72767 13.2939 5.61654 13.1827C5.50529 13.0716 5.44966 12.9336 5.44966 12.7688C5.44966 12.604 5.50529 12.466 5.61654 12.3549C5.72767 12.2436 5.86564 12.188 6.03046 12.188H19.9695C20.1344 12.188 20.2723 12.2436 20.3834 12.3549C20.4947 12.466 20.5503 12.604 20.5503 12.7688C20.5503 12.9336 20.4947 13.0716 20.3834 13.1827C20.2723 13.2939 20.1344 13.3496 19.9695 13.3496H6.03046ZM10.0945 10.5796C9.92966 10.5002 9.8135 10.3731 9.746 10.1984C9.67849 10.0236 9.6845 9.8539 9.764 9.68921C9.95257 9.00813 10.3563 8.47296 10.9753 8.0837C11.5943 7.69457 12.2821 7.5 13.0387 7.5C13.6235 7.5 14.174 7.62287 14.6903 7.86861C15.2066 8.11422 15.6394 8.46741 15.9888 8.92818C16.0911 9.06408 16.1251 9.21722 16.0908 9.38758C16.0566 9.55782 15.9675 9.69405 15.8236 9.79627C15.6637 9.90649 15.4927 9.94721 15.3106 9.91843C15.1284 9.88965 14.9717 9.7993 14.8407 9.64739C14.6222 9.37829 14.3591 9.1785 14.0514 9.04801C13.7436 8.9174 13.414 8.85209 13.0625 8.85209C12.5801 8.85209 12.139 8.97399 11.7393 9.2178C11.3397 9.46147 11.0883 9.80124 10.985 10.2371C10.9056 10.4099 10.7786 10.5301 10.6038 10.5976C10.4291 10.6651 10.2593 10.6591 10.0945 10.5796Z" fill="#808080"/>
</svg>
