<svg width="26" height="27" viewBox="0 0 26 27" fill="none" xmlns="http://www.w3.org/2000/svg">
<path d="M8.7607 19.5C8.60811 19.5 8.48018 19.4484 8.3769 19.3451C8.27373 19.2418 8.22215 19.1138 8.22215 18.9611C8.22215 18.8085 8.27373 18.6806 8.3769 18.5775C8.48018 18.4744 8.60811 18.4229 8.7607 18.4229H17.2393C17.3919 18.4229 17.5198 18.4745 17.6231 18.5778C17.7263 18.6811 17.7778 18.809 17.7778 18.9616C17.7778 19.1143 17.7263 19.2422 17.6231 19.3453C17.5198 19.4484 17.3919 19.5 17.2393 19.5H8.7607ZM13 16.9176C11.8833 16.9176 11.0117 16.5787 10.3853 15.9007C9.75882 15.2227 9.44556 14.3143 9.44556 13.1754V8.16008C9.44556 7.97889 9.5124 7.82355 9.64608 7.69406C9.77976 7.56469 9.9372 7.5 10.1184 7.5C10.2995 7.5 10.4544 7.56469 10.5833 7.69406C10.7122 7.82355 10.7767 7.97889 10.7767 8.16008V13.2417C10.7767 13.9672 10.9695 14.5486 11.3553 14.9859C11.741 15.4232 12.2892 15.6418 13 15.6418C13.7108 15.6418 14.259 15.4232 14.6447 14.9859C15.0305 14.5486 15.2233 13.9672 15.2233 13.2417V8.16008C15.2233 7.97889 15.2902 7.82355 15.4238 7.69406C15.5575 7.56469 15.715 7.5 15.8962 7.5C16.0772 7.5 16.2322 7.56469 16.3611 7.69406C16.49 7.82355 16.5544 7.97889 16.5544 8.16008V13.1754C16.5544 14.3143 16.2412 15.2227 15.6147 15.9007C14.9883 16.5787 14.1167 16.9176 13 16.9176Z" fill="#808080"/>
</svg>
