<svg width="26" height="27" viewBox="0 0 26 27" fill="none" xmlns="http://www.w3.org/2000/svg">
<path d="M11.4794 18.7848C11.313 18.7848 11.1735 18.7285 11.0609 18.6159C10.9484 18.5033 10.8922 18.3638 10.8922 18.1974C10.8922 18.0309 10.9484 17.8915 11.0609 17.7791C11.1735 17.6666 11.313 17.6104 11.4794 17.6104H19.0677C19.2341 17.6104 19.3735 17.6667 19.486 17.7793C19.5986 17.8919 19.6549 18.0314 19.6549 18.1978C19.6549 18.3643 19.5986 18.5037 19.486 18.6161C19.3735 18.7286 19.2341 18.7848 19.0677 18.7848H11.4794ZM11.4794 14.0872C11.313 14.0872 11.1735 14.0309 11.0609 13.9183C10.9484 13.8057 10.8922 13.6662 10.8922 13.4998C10.8922 13.3333 10.9484 13.1939 11.0609 13.0815C11.1735 12.969 11.313 12.9128 11.4794 12.9128H19.0677C19.2341 12.9128 19.3735 12.9691 19.486 13.0817C19.5986 13.1943 19.6549 13.3338 19.6549 13.5002C19.6549 13.6667 19.5986 13.8061 19.486 13.9185C19.3735 14.031 19.2341 14.0872 19.0677 14.0872H11.4794ZM11.4794 9.38961C11.313 9.38961 11.1735 9.3333 11.0609 9.22069C10.9484 9.10808 10.8922 8.96858 10.8922 8.80221C10.8922 8.63571 10.9484 8.49628 11.0609 8.38393C11.1735 8.27145 11.313 8.21521 11.4794 8.21521H19.0677C19.2341 8.21521 19.3735 8.27151 19.486 8.38413C19.5986 8.49674 19.6549 8.63623 19.6549 8.8026C19.6549 8.96911 19.5986 9.10853 19.486 9.22088C19.3735 9.33337 19.2341 9.38961 19.0677 9.38961H11.4794ZM7.64749 19.5C7.28929 19.5 6.98271 19.3724 6.72774 19.1173C6.47263 18.8624 6.34508 18.5558 6.34508 18.1976C6.34508 17.8394 6.47263 17.5328 6.72774 17.2778C6.98271 17.0227 7.28929 16.8952 7.64749 16.8952C8.00568 16.8952 8.31226 17.0227 8.56723 17.2778C8.82234 17.5328 8.94989 17.8394 8.94989 18.1976C8.94989 18.5558 8.82234 18.8624 8.56723 19.1173C8.31226 19.3724 8.00568 19.5 7.64749 19.5ZM7.64749 14.8024C7.28929 14.8024 6.98271 14.6749 6.72774 14.4197C6.47263 14.1648 6.34508 13.8582 6.34508 13.5C6.34508 13.1418 6.47263 12.8352 6.72774 12.5803C6.98271 12.3251 7.28929 12.1976 7.64749 12.1976C8.00568 12.1976 8.31226 12.3251 8.56723 12.5803C8.82234 12.8352 8.94989 13.1418 8.94989 13.5C8.94989 13.8582 8.82234 14.1648 8.56723 14.4197C8.31226 14.6749 8.00568 14.8024 7.64749 14.8024ZM7.64749 10.1048C7.28929 10.1048 6.98271 9.97726 6.72774 9.72216C6.47263 9.46718 6.34508 9.1606 6.34508 8.80241C6.34508 8.44422 6.47263 8.13763 6.72774 7.88266C6.98271 7.62755 7.28929 7.5 7.64749 7.5C8.00568 7.5 8.31226 7.62755 8.56723 7.88266C8.82234 8.13763 8.94989 8.44422 8.94989 8.80241C8.94989 9.1606 8.82234 9.46718 8.56723 9.72216C8.31226 9.97726 8.00568 10.1048 7.64749 10.1048Z" fill="#808080"/>
</svg>
